<svg width="30" height="30" viewBox="0 0 30 30" fill="none" xmlns="http://www.w3.org/2000/svg">
<path d="M6.45246 28.2878L27.965 6.77531C28.8422 5.89808 29.0873 4.72093 28.5125 4.14606L26.102 1.73557C25.5271 1.1607 24.3499 1.40581 23.4727 2.28303L1.96018 23.7956C1.08296 24.6728 0.837848 25.8499 1.41272 26.4248L3.82321 28.8353C4.39808 29.4102 5.57523 29.1651 6.45246 28.2878Z" fill="#2596BE"/>
<path d="M27.965 23.7956L6.45243 2.28306C5.57521 1.40583 4.39805 1.16073 3.82318 1.7356L1.41269 4.14608C0.837824 4.72095 1.08293 5.89811 1.96016 6.77533L23.4727 28.2879C24.3499 29.1651 25.5271 29.4102 26.1019 28.8353L28.5124 26.4248C29.0873 25.85 28.8422 24.6728 27.965 23.7956Z" fill="#2596BE"/>
</svg>
