<svg width="17" height="17" viewBox="0 0 17 17" fill="none" xmlns="http://www.w3.org/2000/svg">
<g clip-path="url(#clip0_260_841)">
<path d="M1.37838 15.6215H2.38919L12.5662 5.44443L11.5554 4.43362L1.37838 14.6106V15.6215ZM15.4838 4.45659L12.5432 1.51605L13.5081 0.551185C13.7685 0.290825 14.0901 0.160645 14.473 0.160645C14.8559 0.160645 15.1775 0.290825 15.4378 0.551185L16.4486 1.562C16.709 1.82236 16.8392 2.14398 16.8392 2.52686C16.8392 2.90974 16.709 3.23137 16.4486 3.49173L15.4838 4.45659ZM14.5189 5.42146L2.94054 16.9998H0V14.0593L11.5784 2.48091L14.5189 5.42146ZM12.0608 4.93902L11.5554 4.43362L12.5662 5.44443L12.0608 4.93902Z" fill="#2596BE"/>
</g>
<defs>
<clipPath id="clip0_260_841">
<rect width="17" height="17" fill="white"/>
</clipPath>
</defs>
</svg>
