<svg width="48" height="60" viewBox="0 0 48 60" fill="none" xmlns="http://www.w3.org/2000/svg">
<path d="M24 60C15.95 53.15 9.9375 46.7875 5.9625 40.9125C1.9875 35.0375 0 29.6 0 24.6C0 17.1 2.4125 11.125 7.2375 6.675C12.0625 2.225 17.65 0 24 0C30.35 0 35.9375 2.225 40.7625 6.675C45.5875 11.125 48 17.1 48 24.6C48 29.6 46.0125 35.0375 42.0375 40.9125C38.0625 46.7875 32.05 53.15 24 60Z" fill="#7B7B7B"/>
<path d="M20.0625 33C18.2347 33 16.684 32.3632 15.4104 31.0896C14.1368 29.816 13.5 28.2653 13.5 26.4375C13.5 25.5625 13.6653 24.7264 13.9958 23.9292C14.3264 23.1319 14.8028 22.4222 15.425 21.8L23.3 13.925C23.9222 13.3028 24.6319 12.8264 25.4292 12.4958C26.2264 12.1653 27.0625 12 27.9375 12C29.7653 12 31.316 12.6368 32.5896 13.9104C33.8632 15.184 34.5 16.7347 34.5 18.5625C34.5 19.4375 34.3347 20.2736 34.0042 21.0708C33.6736 21.8681 33.1972 22.5778 32.575 23.2L24.7 31.075C24.0778 31.6972 23.3681 32.1736 22.5708 32.5042C21.7736 32.8347 20.9375 33 20.0625 33ZM28.025 25.2708L31.35 21.975C31.7972 21.5278 32.1424 21.0076 32.3854 20.4146C32.6285 19.8215 32.75 19.2042 32.75 18.5625C32.75 17.2208 32.2833 16.0833 31.35 15.15C30.4167 14.2167 29.2792 13.75 27.9375 13.75C27.2958 13.75 26.6785 13.8715 26.0854 14.1146C25.4924 14.3576 24.9722 14.7028 24.525 15.15L21.2292 18.475L28.025 25.2708ZM20.0625 31.25C20.6847 31.25 21.2972 31.1285 21.9 30.8854C22.5028 30.6424 23.0278 30.2972 23.475 29.85L26.7708 26.525L19.975 19.7292L16.65 23.025C16.2028 23.4722 15.8576 23.9924 15.6146 24.5854C15.3715 25.1785 15.25 25.7958 15.25 26.4375C15.25 27.7792 15.7167 28.9167 16.65 29.85C17.5833 30.7833 18.7208 31.25 20.0625 31.25Z" fill="black"/>
</svg>
