<svg width="45" height="42" viewBox="0 0 45 42" fill="none" xmlns="http://www.w3.org/2000/svg">
<path d="M22.5 41.2313L20.1938 39.15C16.2275 35.508 12.9484 32.3662 10.3565 29.7247C7.76468 27.0832 5.7 24.7219 4.1625 22.6406C2.625 20.5594 1.54688 18.675 0.928125 16.9875C0.309375 15.3 0 13.5938 0 11.8688C0 8.48794 1.13438 5.66462 3.40313 3.39879C5.67188 1.13293 8.475 0 11.8125 0C13.95 0 15.9281 0.50625 17.7469 1.51875C19.5656 2.53125 21.15 3.99375 22.5 5.90625C24.075 3.88125 25.7438 2.39062 27.5063 1.43437C29.2688 0.478125 31.1625 0 33.1875 0C36.525 0 39.3281 1.13293 41.5969 3.39879C43.8656 5.66462 45 8.48794 45 11.8688C45 13.5938 44.6906 15.3 44.0719 16.9875C43.4531 18.675 42.375 20.5594 40.8375 22.6406C39.3 24.7219 37.2353 27.0832 34.6435 29.7247C32.0516 32.3662 28.7726 35.508 24.8063 39.15L22.5 41.2313Z" fill="#2596BE"/>
</svg>
