<svg width="24" height="24" viewBox="0 0 24 24" fill="none" xmlns="http://www.w3.org/2000/svg">
<path d="M12 22.77L10.77 21.66C8.65464 19.7176 6.9058 18.042 5.52348 16.6332C4.14116 15.2244 3.04 13.965 2.22 12.855C1.4 11.745 0.825 10.74 0.495 9.84003C0.165 8.94003 0 8.03003 0 7.11003C0 5.30693 0.605 3.80116 1.815 2.59272C3.025 1.38426 4.52 0.780029 6.3 0.780029C7.44 0.780029 8.495 1.05003 9.465 1.59003C10.435 2.13003 11.28 2.91003 12 3.93003C12.84 2.85003 13.73 2.05503 14.67 1.54503C15.61 1.03503 16.62 0.780029 17.7 0.780029C19.48 0.780029 20.975 1.38426 22.185 2.59272C23.395 3.80116 24 5.30693 24 7.11003C24 8.03003 23.835 8.94003 23.505 9.84003C23.175 10.74 22.6 11.745 21.78 12.855C20.96 13.965 19.8588 15.2244 18.4765 16.6332C17.0942 18.042 15.3454 19.7176 13.23 21.66L12 22.77ZM12 20.4C14.0247 18.5401 15.6909 16.9451 16.9985 15.6151C18.3062 14.285 19.345 13.12 20.115 12.12C20.885 11.12 21.425 10.2287 21.735 9.44598C22.045 8.66326 22.2 7.88606 22.2 7.11438C22.2 5.79148 21.78 4.70503 20.94 3.85503C20.1 3.00503 19.0223 2.58003 17.7068 2.58003C16.6763 2.58003 15.7225 2.89503 14.8455 3.52503C13.9685 4.15503 13.26 5.04003 12.72 6.18003H11.25C10.73 5.06003 10.0315 4.18003 9.1545 3.54003C8.27748 2.90003 7.32373 2.58003 6.29325 2.58003C4.97775 2.58003 3.9 3.00503 3.06 3.85503C2.22 4.70503 1.8 5.79319 1.8 7.11951C1.8 7.89319 1.955 8.67503 2.265 9.46503C2.575 10.255 3.115 11.155 3.885 12.165C4.655 13.175 5.7 14.34 7.02 15.66C8.34 16.98 10 18.56 12 20.4Z" fill="#2596BE"/>
</svg>
