<svg width="32" height="32" viewBox="0 0 32 32" fill="none" xmlns="http://www.w3.org/2000/svg">
<g clip-path="url(#clip0_40_123)">
<path d="M14.9121 23.6606H17.2447V14.3302H14.9121V23.6606ZM15.9611 11.4533C16.3244 11.4533 16.6291 11.3341 16.8754 11.0956C17.1216 10.8572 17.2447 10.5617 17.2447 10.2092C17.2447 9.8347 17.1218 9.52077 16.8761 9.26742C16.6303 9.01407 16.3258 8.8874 15.9625 8.8874C15.5991 8.8874 15.2944 9.01407 15.0481 9.26742C14.8019 9.52077 14.6788 9.8347 14.6788 10.2092C14.6788 10.5617 14.8017 10.8572 15.0474 11.0956C15.2932 11.3341 15.5978 11.4533 15.9611 11.4533ZM15.9721 31.436C13.8278 31.436 11.8127 31.0278 9.92673 30.2114C8.04079 29.395 6.39155 28.2805 4.97902 26.868C3.56649 25.4555 2.45202 23.8053 1.6356 21.9174C0.819188 20.0295 0.41098 18.0123 0.41098 15.8658C0.41098 13.7193 0.819188 11.7021 1.6356 9.81427C2.45202 7.92638 3.56649 6.28265 4.97902 4.88308C6.39155 3.48351 8.04176 2.37551 9.92965 1.5591C11.8175 0.742681 13.8347 0.334473 15.9812 0.334473C18.1277 0.334473 20.1449 0.742681 22.0327 1.5591C23.9206 2.37551 25.5644 3.48351 26.9639 4.88308C28.3635 6.28265 29.4715 7.92844 30.2879 9.82045C31.1043 11.7125 31.5125 13.7306 31.5125 15.8749C31.5125 18.0192 31.1043 20.0343 30.2879 21.9203C29.4715 23.8062 28.3635 25.4531 26.9639 26.8608C25.5644 28.2686 23.9186 29.3831 22.0266 30.2043C20.1345 31.0254 18.1164 31.436 15.9721 31.436ZM15.9812 29.1034C19.6486 29.1034 22.7652 27.814 25.3311 25.2352C27.897 22.6563 29.1799 19.5332 29.1799 15.8658C29.1799 12.1984 27.8994 9.08178 25.3384 6.51591C22.7774 3.95003 19.6518 2.66709 15.9618 2.66709C12.3073 2.66709 9.19069 3.94759 6.61185 6.5086C4.03302 9.06963 2.7436 12.1952 2.7436 15.8853C2.7436 19.5397 4.03302 22.6563 6.61185 25.2352C9.19069 27.814 12.3138 29.1034 15.9812 29.1034Z" fill="#2596BE"/>
</g>
<defs>
<clipPath id="clip0_40_123">
<rect width="32" height="32" fill="white"/>
</clipPath>
</defs>
</svg>
