<svg width="30" height="30" viewBox="0 0 30 30" fill="none" xmlns="http://www.w3.org/2000/svg">
<path d="M15.0866 14.6997C15.8 14.6997 16.4097 14.4457 16.9155 13.9376C17.4214 13.4296 17.6744 12.8188 17.6744 12.1053C17.6744 11.3919 17.4203 10.7822 16.9122 10.2763C16.4042 9.77045 15.7934 9.51751 15.08 9.51751C14.3665 9.51751 13.7569 9.77155 13.251 10.2796C12.7451 10.7877 12.4922 11.3984 12.4922 12.1119C12.4922 12.8254 12.7462 13.435 13.2543 13.9409C13.7623 14.4468 14.3731 14.6997 15.0866 14.6997ZM15.0833 26.952C18.3653 23.966 20.7899 21.2577 22.3569 18.827C23.9239 16.3963 24.7074 14.2555 24.7074 12.4047C24.7074 9.49801 23.7784 7.11796 21.9204 5.26457C20.0624 3.41119 17.7834 2.4845 15.0833 2.4845C12.3832 2.4845 10.1041 3.41119 8.24614 5.26457C6.38814 7.11796 5.45914 9.49801 5.45914 12.4047C5.45914 14.2555 6.26115 16.3963 7.86517 18.827C9.46919 21.2577 11.8752 23.966 15.0833 26.952ZM15.0833 29.8762C11.1102 26.4954 8.14279 23.3553 6.18095 20.4557C4.21911 17.5561 3.23819 14.8725 3.23819 12.4047C3.23819 8.70316 4.42887 5.75423 6.81022 3.55796C9.19157 1.36169 11.9493 0.26355 15.0833 0.26355C18.2173 0.26355 20.9749 1.36169 23.3563 3.55796C25.7377 5.75423 26.9283 8.70316 26.9283 12.4047C26.9283 14.8725 25.9474 17.5561 23.9856 20.4557C22.0237 23.3553 19.0563 26.4954 15.0833 29.8762Z" fill="#2596BE"/>
</svg>
