<svg width="186" height="186" viewBox="0 0 186 186" fill="none" xmlns="http://www.w3.org/2000/svg">
<path d="M130.781 59.675L147.056 43.4L163.331 59.675L171.469 51.5375L155.194 35.2625L171.469 18.9875L163.331 10.85L147.056 27.125L130.781 10.85L122.644 18.9875L138.919 35.2625L122.644 51.5375L130.781 59.675ZM93.0172 91.0625C96.7516 91.0625 99.9427 89.7328 102.591 87.0734C105.239 84.4141 106.562 81.2172 106.562 77.4827C106.562 73.7484 105.233 70.5573 102.573 67.9094C99.9141 65.2614 96.7172 63.9375 92.9828 63.9375C89.2484 63.9375 86.0573 65.2672 83.4094 67.9266C80.7615 70.5859 79.4375 73.7828 79.4375 77.5172C79.4375 81.2516 80.7672 84.4427 83.4266 87.0906C86.0859 89.7385 89.2828 91.0625 93.0172 91.0625ZM93 170.5C72.2042 152.804 56.6719 136.368 46.4031 121.191C36.1344 106.014 31 91.9666 31 79.05C31 59.675 37.2323 44.2396 49.6969 32.7437C62.1615 21.2479 76.5958 15.5 93 15.5C95.1958 15.5 97.3056 15.5969 99.3292 15.7906C101.353 15.9844 103.376 16.275 105.4 16.6625V28.675C103.462 28.1583 101.46 27.7708 99.3937 27.5125C97.3271 27.2541 95.1958 27.125 93 27.125C78.867 27.125 66.9379 31.9755 57.2128 41.6766C47.4876 51.3776 42.625 63.8354 42.625 79.05C42.625 88.7375 46.8229 99.9427 55.2188 112.666C63.6146 125.389 76.2083 139.565 93 155.194C110.179 139.565 122.87 125.389 131.072 112.666C139.274 99.9427 143.375 88.7375 143.375 79.05C143.375 78.0166 143.343 76.9833 143.278 75.95C143.214 74.9166 143.117 73.8833 142.987 72.85H154.806C154.935 73.8833 155 74.9166 155 75.95V79.05C155 91.9666 149.866 106.014 139.597 121.191C129.328 136.368 113.796 152.804 93 170.5Z" fill="#EF4143"/>
</svg>
