<svg width="24" height="24" viewBox="0 0 24 24" fill="none" xmlns="http://www.w3.org/2000/svg">
<path d="M15.1925 0C14.0359 2.88552e-06 12.8906 0.21883 11.822 0.643986C10.7534 1.06914 9.78249 1.6923 8.96464 2.47789C8.14679 3.26347 7.49804 4.19609 7.05543 5.22251C6.61281 6.24892 6.385 7.34902 6.38501 8.46C6.38502 10.7037 7.31294 12.8555 8.96466 14.4421C10.6164 16.0286 12.8566 16.9199 15.1925 16.9199C16.3491 16.9199 17.4944 16.7011 18.563 16.276C19.6315 15.8508 20.6025 15.2277 21.4203 14.4421C22.2382 13.6565 22.8869 12.7239 23.3296 11.6975C23.7722 10.6711 24 9.57098 24 8.46C24 7.34901 23.7722 6.24891 23.3296 5.22249C22.887 4.19607 22.2382 3.26345 21.4203 2.47786C20.6025 1.69228 19.6316 1.06912 18.563 0.643969C17.4944 0.218816 16.3491 -4.97696e-06 15.1925 0ZM15.2727 2.38823C16.1028 2.38822 16.9248 2.54527 17.6917 2.85041C18.4587 3.15554 19.1555 3.60278 19.7425 4.1666C20.3295 4.73042 20.7951 5.39977 21.1127 6.13643C21.4304 6.87309 21.5939 7.66264 21.5939 8.46C21.5939 10.0703 20.9279 11.6147 19.7425 12.7534C18.557 13.892 16.9492 14.5317 15.2727 14.5317C13.5963 14.5317 11.9885 13.892 10.803 12.7533C9.61757 11.6147 8.9516 10.0703 8.95159 8.46C8.95158 6.84967 9.61755 5.3053 10.803 4.16662C11.9884 3.02794 13.5962 2.38824 15.2727 2.38823Z" fill="#2596BE"/>
<path d="M2.78254 22.9752L11.1386 14.9488C11.4794 14.6215 11.5746 14.1823 11.3513 13.9678L10.415 13.0685C10.1917 12.854 9.73443 12.9454 9.39369 13.2727L1.03761 21.2991C0.69687 21.6264 0.601663 22.0656 0.824959 22.2801L1.76126 23.1794C1.98456 23.3939 2.4418 23.3025 2.78254 22.9752Z" fill="#2596BE"/>
<path d="M3.07087 23.5985L8.73224 18.1605C8.96309 17.9388 8.87503 17.4947 8.53555 17.1686L7.11207 15.8013C6.77258 15.4752 6.31023 15.3906 6.07938 15.6124L0.418008 21.0503C0.187152 21.2721 0.27521 21.7162 0.614692 22.0423L2.03818 23.4096C2.37766 23.7357 2.84001 23.8203 3.07087 23.5985Z" fill="#2596BE"/>
</svg>
