<svg width="25" height="25" viewBox="0 0 25 25" fill="none" xmlns="http://www.w3.org/2000/svg">
<g clip-path="url(#clip0_61_10)">
<path d="M2.08333 25C1.52778 25 1.04167 24.7917 0.625 24.375C0.208333 23.9583 0 23.4722 0 22.9167V2.08333C0 1.52778 0.208333 1.04167 0.625 0.624999C1.04167 0.208333 1.52778 0 2.08333 0H7.61471V2.08333H2.08333V22.9167H22.9167V16.6545H25V22.9167C25 23.4722 24.7917 23.9583 24.375 24.375C23.9583 24.7917 23.4722 25 22.9167 25H2.08333ZM9.09722 17.3958L7.63889 15.9028L21.4583 2.08333H13.8542V0H25V11.1458H22.9167V3.57639L9.09722 17.3958Z" fill="#2596BE"/>
</g>
<defs>
<clipPath id="clip0_61_10">
<rect width="25" height="25" fill="white"/>
</clipPath>
</defs>
</svg>
