<svg width="31" height="31" viewBox="0 0 31 31" fill="none" xmlns="http://www.w3.org/2000/svg">
<path d="M13.9491 24.0858H17.1707V19.5593H21.8195V16.2969H17.1707V11.7704H13.9491V16.2969H9.34102V19.5593H13.9491V24.0858ZM6.60881 30.1619C5.93595 30.1619 5.35994 29.9223 4.88078 29.4432C4.40163 28.964 4.16205 28.388 4.16205 27.7151V8.18184C4.16205 7.50898 4.40163 6.93297 4.88078 6.45382C5.35994 5.97466 5.93595 5.73508 6.60881 5.73508H24.5517C25.2246 5.73508 25.8006 5.97466 26.2797 6.45382C26.7589 6.93297 26.9985 7.50898 26.9985 8.18184V27.7151C26.9985 28.388 26.7589 28.964 26.2797 29.4432C25.8006 29.9223 25.2246 30.1619 24.5517 30.1619H6.60881ZM6.60881 27.7151H24.5517V8.18184H6.60881V27.7151ZM5.79322 3.24754V0.800781H25.4081V3.24754H5.79322Z" fill="#2596BE"/>
</svg>
