<svg width="22" height="22" viewBox="0 0 22 22" fill="none" xmlns="http://www.w3.org/2000/svg">
<g clip-path="url(#clip0_334_683)">
<path d="M11 17.0806C11.2852 17.0806 11.5347 16.9736 11.7486 16.7597C11.9625 16.5458 12.0694 16.2963 12.0694 16.0111C12.0694 15.7259 11.9625 15.4764 11.7486 15.2625C11.5347 15.0486 11.2852 14.9417 11 14.9417C10.7148 14.9417 10.4653 15.0486 10.2514 15.2625C10.0375 15.4764 9.93056 15.7259 9.93056 16.0111C9.93056 16.2963 10.0375 16.5458 10.2514 16.7597C10.4653 16.9736 10.7148 17.0806 11 17.0806ZM10.0833 12.6806H11.9167V4.64444H10.0833V12.6806ZM6.41667 22L0 15.5833V6.41667L6.41667 0H15.5833L22 6.41667V15.5833L15.5833 22H6.41667ZM7.18056 20.1667H14.8194L20.1667 14.8194V7.18056L14.8194 1.83333H7.18056L1.83333 7.18056V14.8194L7.18056 20.1667Z" fill="#2596BE"/>
</g>
<defs>
<clipPath id="clip0_334_683">
<rect width="22" height="22" fill="white"/>
</clipPath>
</defs>
</svg>
