<svg width="48" height="60" viewBox="0 0 48 60" fill="none" xmlns="http://www.w3.org/2000/svg">
<path d="M24 60C15.95 53.15 9.9375 46.7875 5.9625 40.9125C1.9875 35.0375 0 29.6 0 24.6C0 17.1 2.4125 11.125 7.2375 6.675C12.0625 2.225 17.65 0 24 0C30.35 0 35.9375 2.225 40.7625 6.675C45.5875 11.125 48 17.1 48 24.6C48 29.6 46.0125 35.0375 42.0375 40.9125C38.0625 46.7875 32.05 53.15 24 60Z" fill="#F26C4F"/>
<path d="M22.6875 28.3625H25.3125V23.8125H29.8625V21.1875H25.3125V16.6375H22.6875V21.1875H18.1375V23.8125H22.6875V28.3625ZM15.25 33C14.7833 33 14.375 32.825 14.025 32.475C13.675 32.125 13.5 31.7167 13.5 31.25V13.75C13.5 13.2833 13.675 12.875 14.025 12.525C14.375 12.175 14.7833 12 15.25 12H32.75C33.2167 12 33.625 12.175 33.975 12.525C34.325 12.875 34.5 13.2833 34.5 13.75V31.25C34.5 31.7167 34.325 32.125 33.975 32.475C33.625 32.825 33.2167 33 32.75 33H15.25ZM15.25 31.25H32.75V13.75H15.25V31.25Z" fill="black"/>
</svg>
